<svg width="1360" height="248" viewBox="0 0 1360 248" xmlns="http://www.w3.org/2000/svg">
<defs><filter id="s" x="-10%" y="-15%" width="120%" height="150%"><feDropShadow dx="0" dy="14" stdDeviation="20" flood-color="#1C1B19" flood-opacity="0.28"/></filter>
<clipPath id="c"><rect width="1280" height="150" rx="12"/></clipPath></defs>
<g transform="translate(40,28)"><rect width="1280" height="150" rx="12" fill="#27282F" filter="url(#s)"/>
<g clip-path="url(#c)"><rect width="1280" height="150" fill="#27282F"/><rect x="0" width="160" height="96" fill="#AC0340"/><text x="12" y="120" font-family="-apple-system, Helvetica, sans-serif" font-size="13" fill="#D6DAE0">Rojo Vauxoo</text><text x="12" y="138" font-family="SF Mono, Menlo, monospace" font-size="12" fill="#95999F">#AC0340</text><rect x="160" width="160" height="96" fill="#455A64"/><text x="172" y="120" font-family="-apple-system, Helvetica, sans-serif" font-size="13" fill="#D6DAE0">Azul grisáceo</text><text x="172" y="138" font-family="SF Mono, Menlo, monospace" font-size="12" fill="#95999F">#455A64</text><rect x="320" width="160" height="96" fill="#E4A900"/><text x="332" y="120" font-family="-apple-system, Helvetica, sans-serif" font-size="13" fill="#D6DAE0">Dorado</text><text x="332" y="138" font-family="SF Mono, Menlo, monospace" font-size="12" fill="#95999F">#E4A900</text><rect x="480" width="160" height="96" fill="#282C2F"/><text x="492" y="120" font-family="-apple-system, Helvetica, sans-serif" font-size="13" fill="#D6DAE0">Negro Vauxoo</text><text x="492" y="138" font-family="SF Mono, Menlo, monospace" font-size="12" fill="#95999F">#282C2F</text><rect x="640" width="160" height="96" fill="#5498CC"/><text x="652" y="120" font-family="-apple-system, Helvetica, sans-serif" font-size="13" fill="#D6DAE0">Azul</text><text x="652" y="138" font-family="SF Mono, Menlo, monospace" font-size="12" fill="#95999F">#5498CC</text><rect x="800" width="160" height="96" fill="#82BCCE"/><text x="812" y="120" font-family="-apple-system, Helvetica, sans-serif" font-size="13" fill="#D6DAE0">Azul claro</text><text x="812" y="138" font-family="SF Mono, Menlo, monospace" font-size="12" fill="#95999F">#82BCCE</text><rect x="960" width="160" height="96" fill="#6F5198"/><text x="972" y="120" font-family="-apple-system, Helvetica, sans-serif" font-size="13" fill="#D6DAE0">Morado Vakyro</text><text x="972" y="138" font-family="SF Mono, Menlo, monospace" font-size="12" fill="#95999F">#6F5198</text><rect x="1120" width="160" height="96" fill="#F3C5D9"/><text x="1132" y="120" font-family="-apple-system, Helvetica, sans-serif" font-size="13" fill="#D6DAE0">Rosa Vakyro</text><text x="1132" y="138" font-family="SF Mono, Menlo, monospace" font-size="12" fill="#95999F">#F3C5D9</text></g></g></svg>